%FSLAX34Y34*%
G04 Gerber Fmt 3.4, Leading zero omitted, Abs format*
G04 (created by PCBNEW (2014-01-19 BZR 4624)-product) date 5/23/2014 12:26:44 AM*
%MOIN*%
G01*
G70*
G90*
G04 APERTURE LIST*
%ADD10C,0.005906*%
%ADD11C,0.011811*%
%ADD12C,0.007874*%
G04 APERTURE END LIST*
G54D10*
G54D11*
X24671Y-6336D02*
X25121Y-6336D01*
X24896Y-6336D02*
X24896Y-7124D01*
X24971Y-7011D01*
X25046Y-6936D01*
X25121Y-6899D01*
X24184Y-7124D02*
X24109Y-7124D01*
X24034Y-7086D01*
X23997Y-7049D01*
X23959Y-6974D01*
X23922Y-6824D01*
X23922Y-6636D01*
X23959Y-6486D01*
X23997Y-6411D01*
X24034Y-6374D01*
X24109Y-6336D01*
X24184Y-6336D01*
X24259Y-6374D01*
X24296Y-6411D01*
X24334Y-6486D01*
X24371Y-6636D01*
X24371Y-6824D01*
X24334Y-6974D01*
X24296Y-7049D01*
X24259Y-7086D01*
X24184Y-7124D01*
X23584Y-6336D02*
X23584Y-7124D01*
X23322Y-6561D01*
X23059Y-7124D01*
X23059Y-6336D01*
X22722Y-6336D02*
X22534Y-6336D01*
X22534Y-6486D01*
X22609Y-6524D01*
X22684Y-6599D01*
X22722Y-6711D01*
X22722Y-6899D01*
X22684Y-7011D01*
X22609Y-7086D01*
X22497Y-7124D01*
X22347Y-7124D01*
X22234Y-7086D01*
X22159Y-7011D01*
X22122Y-6899D01*
X22122Y-6711D01*
X22159Y-6599D01*
X22234Y-6524D01*
X22309Y-6486D01*
X22309Y-6336D01*
X22122Y-6336D01*
X14178Y-6336D02*
X14628Y-6336D01*
X14403Y-6336D02*
X14403Y-7124D01*
X14478Y-7011D01*
X14553Y-6936D01*
X14628Y-6899D01*
X13841Y-6336D02*
X13841Y-7124D01*
X13578Y-6561D01*
X13316Y-7124D01*
X13316Y-6336D01*
X12979Y-6336D02*
X12791Y-6336D01*
X12791Y-6486D01*
X12866Y-6524D01*
X12941Y-6599D01*
X12979Y-6711D01*
X12979Y-6899D01*
X12941Y-7011D01*
X12866Y-7086D01*
X12754Y-7124D01*
X12604Y-7124D01*
X12491Y-7086D01*
X12416Y-7011D01*
X12379Y-6899D01*
X12379Y-6711D01*
X12416Y-6599D01*
X12491Y-6524D01*
X12566Y-6486D01*
X12566Y-6336D01*
X12379Y-6336D01*
X6336Y-9533D02*
X6336Y-9083D01*
X6336Y-9308D02*
X7124Y-9308D01*
X7011Y-9233D01*
X6936Y-9158D01*
X6899Y-9083D01*
X7124Y-10020D02*
X7124Y-10095D01*
X7086Y-10170D01*
X7049Y-10208D01*
X6974Y-10245D01*
X6824Y-10283D01*
X6636Y-10283D01*
X6486Y-10245D01*
X6411Y-10208D01*
X6374Y-10170D01*
X6336Y-10095D01*
X6336Y-10020D01*
X6374Y-9945D01*
X6411Y-9908D01*
X6486Y-9870D01*
X6636Y-9833D01*
X6824Y-9833D01*
X6974Y-9870D01*
X7049Y-9908D01*
X7086Y-9945D01*
X7124Y-10020D01*
X7124Y-10770D02*
X7124Y-10845D01*
X7086Y-10920D01*
X7049Y-10958D01*
X6974Y-10995D01*
X6824Y-11032D01*
X6636Y-11032D01*
X6486Y-10995D01*
X6411Y-10958D01*
X6374Y-10920D01*
X6336Y-10845D01*
X6336Y-10770D01*
X6374Y-10695D01*
X6411Y-10658D01*
X6486Y-10620D01*
X6636Y-10583D01*
X6824Y-10583D01*
X6974Y-10620D01*
X7049Y-10658D01*
X7086Y-10695D01*
X7124Y-10770D01*
X6336Y-11370D02*
X7124Y-11370D01*
X6636Y-11445D02*
X6336Y-11670D01*
X6861Y-11670D02*
X6561Y-11370D01*
X6336Y-11970D02*
X6336Y-12157D01*
X6486Y-12157D01*
X6524Y-12082D01*
X6599Y-12007D01*
X6711Y-11970D01*
X6899Y-11970D01*
X7011Y-12007D01*
X7086Y-12082D01*
X7124Y-12195D01*
X7124Y-12345D01*
X7086Y-12457D01*
X7011Y-12532D01*
X6899Y-12570D01*
X6711Y-12570D01*
X6599Y-12532D01*
X6524Y-12457D01*
X6486Y-12382D01*
X6336Y-12382D01*
X6336Y-12570D01*
X11089Y-15198D02*
X10639Y-15198D01*
X10864Y-15198D02*
X10864Y-14411D01*
X10789Y-14523D01*
X10714Y-14598D01*
X10639Y-14636D01*
X11576Y-14411D02*
X11651Y-14411D01*
X11726Y-14448D01*
X11764Y-14486D01*
X11801Y-14561D01*
X11839Y-14711D01*
X11839Y-14898D01*
X11801Y-15048D01*
X11764Y-15123D01*
X11726Y-15161D01*
X11651Y-15198D01*
X11576Y-15198D01*
X11501Y-15161D01*
X11464Y-15123D01*
X11426Y-15048D01*
X11389Y-14898D01*
X11389Y-14711D01*
X11426Y-14561D01*
X11464Y-14486D01*
X11501Y-14448D01*
X11576Y-14411D01*
X12176Y-15198D02*
X12176Y-14411D01*
X12251Y-14898D02*
X12476Y-15198D01*
X12476Y-14673D02*
X12176Y-14973D01*
X12776Y-15198D02*
X12964Y-15198D01*
X12964Y-15048D01*
X12889Y-15011D01*
X12814Y-14936D01*
X12776Y-14823D01*
X12776Y-14636D01*
X12814Y-14523D01*
X12889Y-14448D01*
X13001Y-14411D01*
X13151Y-14411D01*
X13263Y-14448D01*
X13338Y-14523D01*
X13376Y-14636D01*
X13376Y-14823D01*
X13338Y-14936D01*
X13263Y-15011D01*
X13188Y-15048D01*
X13188Y-15198D01*
X13376Y-15198D01*
X20125Y-15198D02*
X19675Y-15198D01*
X19900Y-15198D02*
X19900Y-14411D01*
X19825Y-14523D01*
X19750Y-14598D01*
X19675Y-14636D01*
X20463Y-15198D02*
X20463Y-14411D01*
X20538Y-14898D02*
X20763Y-15198D01*
X20763Y-14673D02*
X20463Y-14973D01*
X21062Y-15198D02*
X21250Y-15198D01*
X21250Y-15048D01*
X21175Y-15011D01*
X21100Y-14936D01*
X21062Y-14823D01*
X21062Y-14636D01*
X21100Y-14523D01*
X21175Y-14448D01*
X21287Y-14411D01*
X21437Y-14411D01*
X21550Y-14448D01*
X21625Y-14523D01*
X21662Y-14636D01*
X21662Y-14823D01*
X21625Y-14936D01*
X21550Y-15011D01*
X21475Y-15048D01*
X21475Y-15198D01*
X21662Y-15198D01*
X28355Y-15198D02*
X27905Y-15198D01*
X28130Y-15198D02*
X28130Y-14411D01*
X28055Y-14523D01*
X27980Y-14598D01*
X27905Y-14636D01*
X28843Y-14411D02*
X28918Y-14411D01*
X28993Y-14448D01*
X29030Y-14486D01*
X29068Y-14561D01*
X29105Y-14711D01*
X29105Y-14898D01*
X29068Y-15048D01*
X29030Y-15123D01*
X28993Y-15161D01*
X28918Y-15198D01*
X28843Y-15198D01*
X28768Y-15161D01*
X28730Y-15123D01*
X28693Y-15048D01*
X28655Y-14898D01*
X28655Y-14711D01*
X28693Y-14561D01*
X28730Y-14486D01*
X28768Y-14448D01*
X28843Y-14411D01*
X29593Y-14411D02*
X29668Y-14411D01*
X29743Y-14448D01*
X29780Y-14486D01*
X29818Y-14561D01*
X29855Y-14711D01*
X29855Y-14898D01*
X29818Y-15048D01*
X29780Y-15123D01*
X29743Y-15161D01*
X29668Y-15198D01*
X29593Y-15198D01*
X29518Y-15161D01*
X29480Y-15123D01*
X29443Y-15048D01*
X29405Y-14898D01*
X29405Y-14711D01*
X29443Y-14561D01*
X29480Y-14486D01*
X29518Y-14448D01*
X29593Y-14411D01*
X30155Y-15198D02*
X30343Y-15198D01*
X30343Y-15048D01*
X30268Y-15011D01*
X30193Y-14936D01*
X30155Y-14823D01*
X30155Y-14636D01*
X30193Y-14523D01*
X30268Y-14448D01*
X30380Y-14411D01*
X30530Y-14411D01*
X30643Y-14448D01*
X30718Y-14523D01*
X30755Y-14636D01*
X30755Y-14823D01*
X30718Y-14936D01*
X30643Y-15011D01*
X30568Y-15048D01*
X30568Y-15198D01*
X30755Y-15198D01*
X35001Y-11347D02*
X35001Y-11797D01*
X35001Y-11572D02*
X34214Y-11572D01*
X34326Y-11647D01*
X34401Y-11722D01*
X34439Y-11797D01*
X34214Y-10860D02*
X34214Y-10785D01*
X34251Y-10710D01*
X34289Y-10673D01*
X34364Y-10635D01*
X34514Y-10598D01*
X34701Y-10598D01*
X34851Y-10635D01*
X34926Y-10673D01*
X34964Y-10710D01*
X35001Y-10785D01*
X35001Y-10860D01*
X34964Y-10935D01*
X34926Y-10973D01*
X34851Y-11010D01*
X34701Y-11047D01*
X34514Y-11047D01*
X34364Y-11010D01*
X34289Y-10973D01*
X34251Y-10935D01*
X34214Y-10860D01*
X35001Y-10298D02*
X35001Y-10110D01*
X34851Y-10110D01*
X34814Y-10185D01*
X34739Y-10260D01*
X34626Y-10298D01*
X34439Y-10298D01*
X34326Y-10260D01*
X34251Y-10185D01*
X34214Y-10073D01*
X34214Y-9923D01*
X34251Y-9810D01*
X34326Y-9735D01*
X34439Y-9698D01*
X34626Y-9698D01*
X34739Y-9735D01*
X34814Y-9810D01*
X34851Y-9885D01*
X35001Y-9885D01*
X35001Y-9698D01*
X12924Y-11986D02*
X12746Y-11677D01*
X12553Y-11986D02*
X12634Y-11337D01*
X12881Y-11337D01*
X12939Y-11368D01*
X12966Y-11399D01*
X12990Y-11460D01*
X12978Y-11553D01*
X12939Y-11615D01*
X12905Y-11646D01*
X12839Y-11677D01*
X12591Y-11677D01*
X13454Y-11955D02*
X13388Y-11986D01*
X13264Y-11986D01*
X13206Y-11955D01*
X13183Y-11893D01*
X13214Y-11646D01*
X13253Y-11584D01*
X13318Y-11553D01*
X13442Y-11553D01*
X13500Y-11584D01*
X13523Y-11646D01*
X13516Y-11708D01*
X13198Y-11770D01*
X13732Y-11955D02*
X13790Y-11986D01*
X13914Y-11986D01*
X13980Y-11955D01*
X14018Y-11893D01*
X14022Y-11863D01*
X13999Y-11801D01*
X13941Y-11770D01*
X13848Y-11770D01*
X13790Y-11739D01*
X13767Y-11677D01*
X13771Y-11646D01*
X13809Y-11584D01*
X13875Y-11553D01*
X13968Y-11553D01*
X14026Y-11584D01*
X14285Y-11986D02*
X14339Y-11553D01*
X14366Y-11337D02*
X14331Y-11368D01*
X14359Y-11399D01*
X14393Y-11368D01*
X14366Y-11337D01*
X14359Y-11399D01*
X14567Y-11955D02*
X14625Y-11986D01*
X14749Y-11986D01*
X14815Y-11955D01*
X14853Y-11893D01*
X14857Y-11863D01*
X14834Y-11801D01*
X14776Y-11770D01*
X14683Y-11770D01*
X14625Y-11739D01*
X14602Y-11677D01*
X14606Y-11646D01*
X14645Y-11584D01*
X14710Y-11553D01*
X14803Y-11553D01*
X14861Y-11584D01*
X15082Y-11553D02*
X15329Y-11553D01*
X15201Y-11337D02*
X15132Y-11893D01*
X15155Y-11955D01*
X15213Y-11986D01*
X15275Y-11986D01*
X15491Y-11986D02*
X15546Y-11553D01*
X15573Y-11337D02*
X15538Y-11368D01*
X15565Y-11399D01*
X15600Y-11368D01*
X15573Y-11337D01*
X15565Y-11399D01*
X15793Y-11553D02*
X15894Y-11986D01*
X16102Y-11553D01*
X16547Y-11955D02*
X16481Y-11986D01*
X16358Y-11986D01*
X16300Y-11955D01*
X16276Y-11893D01*
X16307Y-11646D01*
X16346Y-11584D01*
X16412Y-11553D01*
X16535Y-11553D01*
X16593Y-11584D01*
X16617Y-11646D01*
X16609Y-11708D01*
X16292Y-11770D01*
X17340Y-11801D02*
X17649Y-11801D01*
X17255Y-11986D02*
X17552Y-11337D01*
X17688Y-11986D01*
X17904Y-11986D02*
X17958Y-11553D01*
X17943Y-11677D02*
X17982Y-11615D01*
X18016Y-11584D01*
X18082Y-11553D01*
X18144Y-11553D01*
X18558Y-11955D02*
X18492Y-11986D01*
X18368Y-11986D01*
X18310Y-11955D01*
X18287Y-11893D01*
X18318Y-11646D01*
X18357Y-11584D01*
X18422Y-11553D01*
X18546Y-11553D01*
X18604Y-11584D01*
X18627Y-11646D01*
X18620Y-11708D01*
X18303Y-11770D01*
X18917Y-11553D02*
X18863Y-11986D01*
X18910Y-11615D02*
X18944Y-11584D01*
X19010Y-11553D01*
X19103Y-11553D01*
X19161Y-11584D01*
X19184Y-11646D01*
X19142Y-11986D01*
X19729Y-11986D02*
X19772Y-11646D01*
X19749Y-11584D01*
X19691Y-11553D01*
X19567Y-11553D01*
X19501Y-11584D01*
X19733Y-11955D02*
X19667Y-11986D01*
X19513Y-11986D01*
X19455Y-11955D01*
X19432Y-11893D01*
X19439Y-11832D01*
X19478Y-11770D01*
X19544Y-11739D01*
X19698Y-11739D01*
X19764Y-11708D01*
X20534Y-11986D02*
X20615Y-11337D01*
X20584Y-11584D02*
X20650Y-11553D01*
X20773Y-11553D01*
X20831Y-11584D01*
X20858Y-11615D01*
X20882Y-11677D01*
X20858Y-11863D01*
X20820Y-11924D01*
X20785Y-11955D01*
X20719Y-11986D01*
X20596Y-11986D01*
X20537Y-11955D01*
X21114Y-11553D02*
X21214Y-11986D01*
X21423Y-11553D02*
X21214Y-11986D01*
X21133Y-12141D01*
X21098Y-12172D01*
X21032Y-12203D01*
X22111Y-11986D02*
X22192Y-11337D01*
X22482Y-11986D01*
X22564Y-11337D01*
X22792Y-11986D02*
X22846Y-11553D01*
X22873Y-11337D02*
X22838Y-11368D01*
X22865Y-11399D01*
X22900Y-11368D01*
X22873Y-11337D01*
X22865Y-11399D01*
X23434Y-11553D02*
X23368Y-12079D01*
X23329Y-12141D01*
X23294Y-12172D01*
X23229Y-12203D01*
X23136Y-12203D01*
X23078Y-12172D01*
X23383Y-11955D02*
X23318Y-11986D01*
X23194Y-11986D01*
X23136Y-11955D01*
X23109Y-11924D01*
X23086Y-11863D01*
X23109Y-11677D01*
X23148Y-11615D01*
X23182Y-11584D01*
X23248Y-11553D01*
X23372Y-11553D01*
X23430Y-11584D01*
X23689Y-11986D02*
X23770Y-11337D01*
X23967Y-11986D02*
X24010Y-11646D01*
X23987Y-11584D01*
X23929Y-11553D01*
X23836Y-11553D01*
X23770Y-11584D01*
X23735Y-11615D01*
X24238Y-11553D02*
X24485Y-11553D01*
X24358Y-11337D02*
X24288Y-11893D01*
X24311Y-11955D01*
X24369Y-11986D01*
X24431Y-11986D01*
X24648Y-11986D02*
X24702Y-11553D01*
X24694Y-11615D02*
X24729Y-11584D01*
X24795Y-11553D01*
X24888Y-11553D01*
X24946Y-11584D01*
X24969Y-11646D01*
X24926Y-11986D01*
X24969Y-11646D02*
X25007Y-11584D01*
X25073Y-11553D01*
X25166Y-11553D01*
X25224Y-11584D01*
X25247Y-11646D01*
X25205Y-11986D01*
X25765Y-11955D02*
X25700Y-11986D01*
X25576Y-11986D01*
X25518Y-11955D01*
X25495Y-11893D01*
X25526Y-11646D01*
X25564Y-11584D01*
X25630Y-11553D01*
X25754Y-11553D01*
X25812Y-11584D01*
X25835Y-11646D01*
X25827Y-11708D01*
X25510Y-11770D01*
X26353Y-11955D02*
X26287Y-11986D01*
X26164Y-11986D01*
X26106Y-11955D01*
X26078Y-11924D01*
X26055Y-11863D01*
X26078Y-11677D01*
X26117Y-11615D01*
X26152Y-11584D01*
X26218Y-11553D01*
X26341Y-11553D01*
X26399Y-11584D01*
X26628Y-11986D02*
X26709Y-11337D01*
X26906Y-11986D02*
X26948Y-11646D01*
X26925Y-11584D01*
X26867Y-11553D01*
X26774Y-11553D01*
X26709Y-11584D01*
X26674Y-11615D01*
X27494Y-11986D02*
X27536Y-11646D01*
X27513Y-11584D01*
X27455Y-11553D01*
X27331Y-11553D01*
X27266Y-11584D01*
X27498Y-11955D02*
X27432Y-11986D01*
X27277Y-11986D01*
X27219Y-11955D01*
X27196Y-11893D01*
X27204Y-11832D01*
X27242Y-11770D01*
X27308Y-11739D01*
X27463Y-11739D01*
X27529Y-11708D01*
X27857Y-11553D02*
X27803Y-11986D01*
X27849Y-11615D02*
X27884Y-11584D01*
X27950Y-11553D01*
X28043Y-11553D01*
X28101Y-11584D01*
X28124Y-11646D01*
X28081Y-11986D01*
X28391Y-11986D02*
X28445Y-11553D01*
X28472Y-11337D02*
X28437Y-11368D01*
X28464Y-11399D01*
X28499Y-11368D01*
X28472Y-11337D01*
X28464Y-11399D01*
X28982Y-11955D02*
X28917Y-11986D01*
X28793Y-11986D01*
X28735Y-11955D01*
X28708Y-11924D01*
X28685Y-11863D01*
X28708Y-11677D01*
X28747Y-11615D01*
X28781Y-11584D01*
X28847Y-11553D01*
X28971Y-11553D01*
X29029Y-11584D01*
G54D12*
X34586Y-7480D02*
G75*
G03X34586Y-7480I-728J0D01*
G74*
G01*
X34586Y-14173D02*
G75*
G03X34586Y-14173I-728J0D01*
G74*
G01*
X25728Y-14173D02*
G75*
G03X25728Y-14173I-728J0D01*
G74*
G01*
X17066Y-14173D02*
G75*
G03X17066Y-14173I-728J0D01*
G74*
G01*
X8405Y-14173D02*
G75*
G03X8405Y-14173I-728J0D01*
G74*
G01*
X8405Y-7480D02*
G75*
G03X8405Y-7480I-728J0D01*
G74*
G01*
X19232Y-7480D02*
G75*
G03X19232Y-7480I-728J0D01*
G74*
G01*
X15393Y-9566D02*
X15393Y-10393D01*
X15393Y-10393D02*
X11456Y-10393D01*
X11456Y-10393D02*
X11456Y-9566D01*
X11456Y-9566D02*
X10669Y-9566D01*
X10669Y-9566D02*
X11456Y-9566D01*
X11456Y-9566D02*
X11456Y-8740D01*
X11456Y-8740D02*
X15393Y-8740D01*
X15393Y-8740D02*
X15393Y-9566D01*
X16181Y-9566D02*
X15393Y-9566D01*
X29161Y-9496D02*
X18161Y-9496D01*
X18161Y-9496D02*
X18161Y-10996D01*
X18161Y-10996D02*
X29161Y-10996D01*
X29161Y-10996D02*
X29161Y-9496D01*
X12125Y-11929D02*
G75*
G03X12125Y-11929I-1299J0D01*
G74*
G01*
X12125Y-7480D02*
G75*
G03X12125Y-7480I-1299J0D01*
G74*
G01*
X32716Y-7480D02*
G75*
G03X32716Y-7480I-1299J0D01*
G74*
G01*
X32716Y-11929D02*
G75*
G03X32716Y-11929I-1299J0D01*
G74*
G01*
X33681Y-9940D02*
X33779Y-9940D01*
X33779Y-9940D02*
X33779Y-10019D01*
X32992Y-10019D02*
X32992Y-9940D01*
X32992Y-9940D02*
X33070Y-9940D01*
X32992Y-11614D02*
X32992Y-11712D01*
X32992Y-11712D02*
X33051Y-11712D01*
X33779Y-11653D02*
X33779Y-11712D01*
X33779Y-11712D02*
X33720Y-11712D01*
X32992Y-11318D02*
X32992Y-11633D01*
X33070Y-11712D02*
X33700Y-11712D01*
X33779Y-11633D02*
X33779Y-11318D01*
X32992Y-10019D02*
X32992Y-10334D01*
X33779Y-10019D02*
X33779Y-10334D01*
X33700Y-9940D02*
X33070Y-9940D01*
X30216Y-14035D02*
X30216Y-14133D01*
X30216Y-14133D02*
X30137Y-14133D01*
X30137Y-13346D02*
X30216Y-13346D01*
X30216Y-13346D02*
X30216Y-13425D01*
X28543Y-13346D02*
X28444Y-13346D01*
X28444Y-13346D02*
X28444Y-13405D01*
X28503Y-14133D02*
X28444Y-14133D01*
X28444Y-14133D02*
X28444Y-14074D01*
X28838Y-13346D02*
X28523Y-13346D01*
X28444Y-13425D02*
X28444Y-14055D01*
X28523Y-14133D02*
X28838Y-14133D01*
X30137Y-13346D02*
X29822Y-13346D01*
X30137Y-14133D02*
X29822Y-14133D01*
X30216Y-14055D02*
X30216Y-13425D01*
X21555Y-14035D02*
X21555Y-14133D01*
X21555Y-14133D02*
X21476Y-14133D01*
X21476Y-13346D02*
X21555Y-13346D01*
X21555Y-13346D02*
X21555Y-13425D01*
X19881Y-13346D02*
X19783Y-13346D01*
X19783Y-13346D02*
X19783Y-13405D01*
X19842Y-14133D02*
X19783Y-14133D01*
X19783Y-14133D02*
X19783Y-14074D01*
X20177Y-13346D02*
X19862Y-13346D01*
X19783Y-13425D02*
X19783Y-14055D01*
X19862Y-14133D02*
X20177Y-14133D01*
X21476Y-13346D02*
X21161Y-13346D01*
X21476Y-14133D02*
X21161Y-14133D01*
X21555Y-14055D02*
X21555Y-13425D01*
X12893Y-14015D02*
X12893Y-14114D01*
X12893Y-14114D02*
X12814Y-14114D01*
X12814Y-13326D02*
X12893Y-13326D01*
X12893Y-13326D02*
X12893Y-13405D01*
X11220Y-13326D02*
X11122Y-13326D01*
X11122Y-13326D02*
X11122Y-13385D01*
X11181Y-14114D02*
X11122Y-14114D01*
X11122Y-14114D02*
X11122Y-14055D01*
X11515Y-13326D02*
X11200Y-13326D01*
X11122Y-13405D02*
X11122Y-14035D01*
X11200Y-14114D02*
X11515Y-14114D01*
X12814Y-13326D02*
X12500Y-13326D01*
X12814Y-14114D02*
X12500Y-14114D01*
X12893Y-14035D02*
X12893Y-13405D01*
X8484Y-9940D02*
X8582Y-9940D01*
X8582Y-9940D02*
X8582Y-10019D01*
X7795Y-10019D02*
X7795Y-9940D01*
X7795Y-9940D02*
X7874Y-9940D01*
X7795Y-11614D02*
X7795Y-11712D01*
X7795Y-11712D02*
X7854Y-11712D01*
X8582Y-11653D02*
X8582Y-11712D01*
X8582Y-11712D02*
X8523Y-11712D01*
X7795Y-11318D02*
X7795Y-11633D01*
X7874Y-11712D02*
X8503Y-11712D01*
X8582Y-11633D02*
X8582Y-11318D01*
X7795Y-10019D02*
X7795Y-10334D01*
X8582Y-10019D02*
X8582Y-10334D01*
X8503Y-9940D02*
X7874Y-9940D01*
X29783Y-7440D02*
G75*
G03X29783Y-7440I-728J0D01*
G74*
G01*
G54D10*
X13359Y-8563D02*
X13228Y-8376D01*
X13134Y-8563D02*
X13134Y-8170D01*
X13284Y-8170D01*
X13322Y-8188D01*
X13340Y-8207D01*
X13359Y-8245D01*
X13359Y-8301D01*
X13340Y-8338D01*
X13322Y-8357D01*
X13284Y-8376D01*
X13134Y-8376D01*
X13697Y-8170D02*
X13622Y-8170D01*
X13584Y-8188D01*
X13565Y-8207D01*
X13528Y-8263D01*
X13509Y-8338D01*
X13509Y-8488D01*
X13528Y-8526D01*
X13547Y-8545D01*
X13584Y-8563D01*
X13659Y-8563D01*
X13697Y-8545D01*
X13715Y-8526D01*
X13734Y-8488D01*
X13734Y-8395D01*
X13715Y-8357D01*
X13697Y-8338D01*
X13659Y-8320D01*
X13584Y-8320D01*
X13547Y-8338D01*
X13528Y-8357D01*
X13509Y-8395D01*
X23517Y-9311D02*
X23385Y-9124D01*
X23292Y-9311D02*
X23292Y-8918D01*
X23442Y-8918D01*
X23479Y-8937D01*
X23498Y-8955D01*
X23517Y-8993D01*
X23517Y-9049D01*
X23498Y-9086D01*
X23479Y-9105D01*
X23442Y-9124D01*
X23292Y-9124D01*
X23648Y-8918D02*
X23910Y-8918D01*
X23742Y-9311D01*
X32855Y-10577D02*
X32667Y-10708D01*
X32855Y-10802D02*
X32461Y-10802D01*
X32461Y-10652D01*
X32480Y-10614D01*
X32499Y-10596D01*
X32536Y-10577D01*
X32592Y-10577D01*
X32630Y-10596D01*
X32649Y-10614D01*
X32667Y-10652D01*
X32667Y-10802D01*
X32855Y-10202D02*
X32855Y-10427D01*
X32855Y-10314D02*
X32461Y-10314D01*
X32517Y-10352D01*
X32555Y-10389D01*
X32574Y-10427D01*
X29265Y-13209D02*
X29133Y-13022D01*
X29040Y-13209D02*
X29040Y-12815D01*
X29190Y-12815D01*
X29227Y-12834D01*
X29246Y-12853D01*
X29265Y-12890D01*
X29265Y-12947D01*
X29246Y-12984D01*
X29227Y-13003D01*
X29190Y-13022D01*
X29040Y-13022D01*
X29415Y-12853D02*
X29433Y-12834D01*
X29471Y-12815D01*
X29565Y-12815D01*
X29602Y-12834D01*
X29621Y-12853D01*
X29640Y-12890D01*
X29640Y-12928D01*
X29621Y-12984D01*
X29396Y-13209D01*
X29640Y-13209D01*
X20603Y-13209D02*
X20472Y-13022D01*
X20378Y-13209D02*
X20378Y-12815D01*
X20528Y-12815D01*
X20566Y-12834D01*
X20584Y-12853D01*
X20603Y-12890D01*
X20603Y-12947D01*
X20584Y-12984D01*
X20566Y-13003D01*
X20528Y-13022D01*
X20378Y-13022D01*
X20734Y-12815D02*
X20978Y-12815D01*
X20847Y-12965D01*
X20903Y-12965D01*
X20941Y-12984D01*
X20959Y-13003D01*
X20978Y-13040D01*
X20978Y-13134D01*
X20959Y-13172D01*
X20941Y-13190D01*
X20903Y-13209D01*
X20791Y-13209D01*
X20753Y-13190D01*
X20734Y-13172D01*
X12650Y-13130D02*
X12519Y-12943D01*
X12425Y-13130D02*
X12425Y-12737D01*
X12575Y-12737D01*
X12613Y-12755D01*
X12632Y-12774D01*
X12650Y-12812D01*
X12650Y-12868D01*
X12632Y-12905D01*
X12613Y-12924D01*
X12575Y-12943D01*
X12425Y-12943D01*
X12988Y-12868D02*
X12988Y-13130D01*
X12894Y-12718D02*
X12800Y-12999D01*
X13044Y-12999D01*
X9115Y-10853D02*
X8927Y-10984D01*
X9115Y-11077D02*
X8721Y-11077D01*
X8721Y-10928D01*
X8740Y-10890D01*
X8758Y-10871D01*
X8796Y-10853D01*
X8852Y-10853D01*
X8890Y-10871D01*
X8908Y-10890D01*
X8927Y-10928D01*
X8927Y-11077D01*
X8721Y-10496D02*
X8721Y-10684D01*
X8908Y-10703D01*
X8890Y-10684D01*
X8871Y-10646D01*
X8871Y-10553D01*
X8890Y-10515D01*
X8908Y-10496D01*
X8946Y-10478D01*
X9040Y-10478D01*
X9077Y-10496D01*
X9096Y-10515D01*
X9115Y-10553D01*
X9115Y-10646D01*
X9096Y-10684D01*
X9077Y-10703D01*
M02*
